<svg width="95" height="89" viewBox="0 0 95 89" fill="none" xmlns="http://www.w3.org/2000/svg">
<path d="M36.0789 30.25C40.0129 30.25 43.7859 31.8128 46.5676 34.5946C49.3494 37.3764 50.9122 41.1493 50.9122 45.0833C50.9122 49.0174 49.3494 52.7903 46.5676 55.5721C43.7859 58.3539 40.0129 59.9167 36.0789 59.9167C32.1449 59.9167 28.3719 58.3539 25.5901 55.5721C22.8084 52.7903 21.2456 49.0174 21.2456 45.0833C21.2456 41.1493 22.8084 37.3764 25.5901 34.5946C28.3719 31.8128 32.1449 30.25 36.0789 30.25ZM36.0789 37.6667C34.1119 37.6667 32.2254 38.4481 30.8345 39.839C29.4436 41.2299 28.6622 43.1163 28.6622 45.0833C28.6622 47.0504 29.4436 48.9368 30.8345 50.3277C32.2254 51.7186 34.1119 52.5 36.0789 52.5C38.0459 52.5 39.9324 51.7186 41.3233 50.3277C42.7142 48.9368 43.4956 47.0504 43.4956 45.0833C43.4956 43.1163 42.7142 41.2299 41.3233 39.839C39.9324 38.4481 38.0459 37.6667 36.0789 37.6667ZM28.6622 82.1667C27.7351 82.1667 26.9564 81.4992 26.8081 80.6092L25.436 70.7821C23.0997 69.855 21.0972 68.5942 19.1689 67.1108L9.93515 70.8563C9.11931 71.1529 8.11806 70.8562 7.67306 70.0404L0.256396 57.2096C0.0294299 56.8275 -0.050584 56.3758 0.0313176 55.939C0.113219 55.5022 0.351428 55.1102 0.701397 54.8363L8.52598 48.6804L8.2664 45.0833L8.52598 41.375L0.701397 35.3304C0.351428 35.0565 0.113219 34.6645 0.0313176 34.2277C-0.050584 33.7909 0.0294299 33.3392 0.256396 32.9571L7.67306 20.1262C8.11806 19.3104 9.11931 18.9767 9.93515 19.3104L19.1689 23.0188C21.0972 21.5725 23.0997 20.3117 25.436 19.3846L26.8081 9.5575C26.9564 8.6675 27.7351 8 28.6622 8H43.4956C44.4226 8 45.2014 8.6675 45.3497 9.5575L46.7218 19.3846C49.0581 20.3117 51.0606 21.5725 52.9889 23.0188L62.2226 19.3104C63.0385 18.9767 64.0397 19.3104 64.4847 20.1262L71.9014 32.9571C72.3835 33.7729 72.161 34.7742 71.4564 35.3304L63.6318 41.375L63.8914 45.0833L63.6318 48.7917L71.4564 54.8363C72.161 55.3925 72.3835 56.3937 71.9014 57.2096L64.4847 70.0404C64.0397 70.8562 63.0385 71.19 62.2226 70.8563L52.9889 67.1479C51.0606 68.5942 49.0581 69.855 46.7218 70.7821L45.3497 80.6092C45.2014 81.4992 44.4226 82.1667 43.4956 82.1667H28.6622ZM33.2976 15.4167L31.9256 25.0954C27.4756 26.0225 23.5447 28.3958 20.6893 31.6963L11.7522 27.8396L8.97098 32.6604L16.7956 38.4083C15.3122 42.7347 15.3122 47.4319 16.7956 51.7583L8.9339 57.5433L11.7151 62.3642L20.7264 58.5075C23.5818 61.7708 27.4756 64.1442 31.8885 65.0342L33.2606 74.75H38.8972L40.2693 65.0712C44.6822 64.1442 48.576 61.7708 51.4314 58.5075L60.4426 62.3642L63.2239 57.5433L55.3622 51.7954C56.8456 47.4567 56.8456 42.7471 55.3622 38.4083L63.1868 32.6604L60.4056 27.8396L51.4685 31.6963C48.5546 28.3229 44.6019 26.0139 40.2322 25.1325L38.8601 15.4167H33.2976Z" fill="white"/>
<path d="M76.4326 70.96C77.4315 71.367 78.5004 71.581 79.583 71.5811C80.6635 71.5811 81.7304 71.3673 82.7275 70.9619L82.8916 70.9648L83.4209 72.0234C82.212 72.551 80.9056 72.8252 79.583 72.8252C78.2603 72.8251 76.9541 72.5511 75.7451 72.0234L76.2754 70.9629L76.4326 70.96ZM74.8857 71.5068C74.8171 71.4348 74.7527 71.3584 74.6992 71.2734C74.6448 71.1869 74.6029 71.0939 74.5674 70.999L75.1455 70.9873L74.8857 71.5068ZM84.5977 70.999C84.5622 71.0937 84.5221 71.1871 84.4678 71.2734C84.4142 71.3586 84.3491 71.4347 84.2803 71.5068L84.0215 70.9883L84.5977 70.999ZM73.9346 61.5664C74.974 64.227 75.5678 67.0402 75.6914 69.8936L75.6504 69.9766L74.4531 70.002C74.3407 67.2697 73.7752 64.5777 72.7861 62.04L73.9346 61.5664ZM86.3789 62.042C85.39 64.5793 84.8255 67.2699 84.7148 70.002L83.5166 69.9785L83.4736 69.8916C83.5981 67.0393 84.1929 64.2269 85.2324 61.5674L86.3789 62.042ZM86.6309 61.0635L85.6123 60.6416C85.6543 60.5465 85.6965 60.4574 85.7402 60.3721L86.6309 61.0635ZM73.4248 60.3711C73.4687 60.4568 73.5116 60.5461 73.5537 60.6416L72.5371 61.0615L73.4248 60.3711ZM72.2881 59.1621C72.4905 59.316 72.6639 59.4534 72.8115 59.583L71.8047 60.3643C71.7333 60.3081 71.6456 60.2421 71.5391 60.1611L72.2881 59.1621ZM87.627 60.1602C87.5206 60.2412 87.4326 60.3069 87.3613 60.3633L86.3555 59.582C86.503 59.4522 86.6768 59.3155 86.8779 59.1631L87.627 60.1602ZM66.7539 49.083C66.8235 50.9066 67.281 52.6967 68.0996 54.332C68.918 55.967 70.0764 57.4054 71.4941 58.5537L70.7471 59.5488C69.1752 58.2841 67.892 56.6953 66.9873 54.8877C66.0825 53.0797 65.5799 51.0996 65.5098 49.083H66.7539ZM93.6572 49.083C93.5871 51.0996 93.0845 53.0797 92.1797 54.8877C91.2749 56.6955 89.991 58.284 88.4189 59.5488L88.1396 59.1777L87.6709 58.5527C90.4498 56.2973 92.2658 52.903 92.4121 49.083H93.6572ZM80.083 34.5098C83.6367 34.6358 87.0189 36.1019 89.542 38.625C92.0649 41.1479 93.53 44.5297 93.6562 48.083H92.4121C92.2865 44.8595 90.9518 41.7936 88.6621 39.5039C86.3723 37.2142 83.3066 35.8793 80.083 35.7539V34.5098ZM79.083 35.7539C75.8595 35.8795 72.7936 37.2142 70.5039 39.5039C68.2142 41.7936 66.8795 44.8595 66.7539 48.083H65.5098C65.636 44.5296 67.102 41.148 69.625 38.625C72.148 36.102 75.5296 34.636 79.083 34.5098V35.7539Z" stroke="white"/>
<path d="M85.1923 63.1667C81.5917 64.6073 77.5749 64.6073 73.9744 63.1667" stroke="white"/>
<path d="M77.3398 57.5578V48.0225C77.3398 46.4744 76.0833 45.218 74.5353 45.218C72.9872 45.218 71.7308 46.4744 71.7308 48.0225C71.7308 49.5706 72.9872 50.827 74.5353 50.827H84.6314C86.1795 50.827 87.4359 49.5706 87.4359 48.0225C87.4359 46.4744 86.1795 45.218 84.6314 45.218C83.0833 45.218 81.8269 46.4744 81.8269 48.0225V57.5578" stroke="white" stroke-linecap="round"/>
</svg>
