<svg width="53" height="53" viewBox="0 0 53 53" fill="none" xmlns="http://www.w3.org/2000/svg">
<path d="M21.9773 21.2507L25.4201 13.9522C25.5129 13.7432 25.6643 13.5656 25.856 13.441C26.0476 13.3163 26.2714 13.25 26.5 13.25C26.7286 13.25 26.9524 13.3163 27.1441 13.441C27.3357 13.5656 27.4871 13.7432 27.5799 13.9522L31.0227 21.2507L38.7187 22.4278C39.7058 22.5779 40.0989 23.8499 39.3856 24.5787L33.8162 30.2541L35.1302 38.2725C35.3002 39.3038 34.2667 40.0878 33.3834 39.602L26.5 35.8147L19.6166 39.602C18.7333 40.0878 17.6998 39.3038 17.8698 38.2725L19.1838 30.2563L13.6144 24.5787C12.9011 23.8499 13.2942 22.5779 14.2813 22.4278L21.9773 21.2507ZM48.5833 26.4999H50.7917H48.5833ZM26.5 4.41659V2.20825V4.41659ZM26.5 50.7916V48.5833V50.7916ZM44.1667 44.1666L41.9583 41.9583L44.1667 44.1666ZM44.1667 8.83325L41.9583 11.0416L44.1667 8.83325ZM8.83334 44.1666L11.0417 41.9583L8.83334 44.1666ZM8.83334 8.83325L11.0417 11.0416L8.83334 8.83325ZM2.20834 26.4999H4.41668H2.20834Z" fill="white"/>
<path d="M48.5833 26.4999H50.7917M26.5 4.41659V2.20825M26.5 50.7916V48.5833M44.1667 44.1666L41.9583 41.9583M44.1667 8.83325L41.9583 11.0416M8.83334 44.1666L11.0417 41.9583M8.83334 8.83325L11.0417 11.0416M2.20834 26.4999H4.41668M21.9773 21.2507L25.4201 13.9522C25.5129 13.7432 25.6643 13.5656 25.856 13.441C26.0476 13.3163 26.2714 13.25 26.5 13.25C26.7286 13.25 26.9524 13.3163 27.1441 13.441C27.3357 13.5656 27.4871 13.7432 27.5799 13.9522L31.0227 21.2507L38.7187 22.4278C39.7058 22.5779 40.0989 23.8499 39.3856 24.5787L33.8162 30.2541L35.1302 38.2725C35.3002 39.3038 34.2667 40.0878 33.3834 39.602L26.5 35.8147L19.6166 39.602C18.7333 40.0878 17.6998 39.3038 17.8698 38.2725L19.1838 30.2563L13.6144 24.5787C12.9011 23.8499 13.2942 22.5779 14.2813 22.4278L21.9773 21.2507Z" stroke="white" stroke-width="1.5" stroke-linecap="round" stroke-linejoin="round"/>
</svg>
